<svg width="260" height="260" viewBox="0 0 260 260" fill="none" xmlns="http://www.w3.org/2000/svg">
  <defs>
    <linearGradient id="shieldOuter" x1="58" y1="44" x2="191" y2="220" gradientUnits="userSpaceOnUse">
      <stop stop-color="#46D7FF"/>
      <stop offset="1" stop-color="#17809E"/>
    </linearGradient>
    <linearGradient id="shieldInner" x1="82" y1="79" x2="171" y2="192" gradientUnits="userSpaceOnUse">
      <stop stop-color="#10161D"/>
      <stop offset="1" stop-color="#091018"/>
    </linearGradient>
  </defs>
  <circle cx="130" cy="130" r="106" fill="#081017" stroke="#273341" stroke-width="6"/>
  <path d="M130 42L205 71V126C205 171.144 174.767 211.02 130 222C85.2327 211.02 55 171.144 55 126V71L130 42Z" fill="url(#shieldOuter)" fill-opacity="0.24" stroke="url(#shieldOuter)" stroke-width="6"/>
  <path d="M130 63L186 84V125.5C186 160.354 162.671 192.649 130 200.833C97.3291 192.649 74 160.354 74 125.5V84L130 63Z" fill="url(#shieldInner)" stroke="#46D7FF" stroke-opacity="0.3" stroke-width="3"/>
  <path d="M130 92V170" stroke="#F79233" stroke-width="16" stroke-linecap="round"/>
  <path d="M91 131H169" stroke="#F79233" stroke-width="16" stroke-linecap="round"/>
  <circle cx="130" cy="130" r="70" stroke="#46D7FF" stroke-opacity="0.24" stroke-width="3" stroke-dasharray="9 9">
    <animateTransform attributeName="transform" type="rotate" from="0 130 130" to="-360 130 130" dur="24s" repeatCount="indefinite"/>
  </circle>
  <circle cx="130" cy="130" r="22" fill="#F79233" fill-opacity="0.15">
    <animate attributeName="r" values="20;25;20" dur="2.8s" repeatCount="indefinite"/>
  </circle>
</svg>
