<svg width="260" height="260" viewBox="0 0 260 260" fill="none" xmlns="http://www.w3.org/2000/svg">
  <defs>
    <linearGradient id="extBg" x1="40" y1="30" x2="216" y2="232" gradientUnits="userSpaceOnUse">
      <stop stop-color="#0D1319"/>
      <stop offset="1" stop-color="#081017"/>
    </linearGradient>
    <linearGradient id="extBody" x1="99" y1="79" x2="165" y2="198" gradientUnits="userSpaceOnUse">
      <stop stop-color="#F79233"/>
      <stop offset="1" stop-color="#C44F14"/>
    </linearGradient>
  </defs>
  <circle cx="130" cy="130" r="106" fill="url(#extBg)" stroke="#273341" stroke-width="6"/>
  <circle cx="130" cy="130" r="88" stroke="#F79233" stroke-opacity="0.22" stroke-width="3" stroke-dasharray="10 12">
    <animateTransform attributeName="transform" type="rotate" from="360 130 130" to="0 130 130" dur="18s" repeatCount="indefinite"/>
  </circle>
  <rect x="100" y="78" width="62" height="118" rx="30" fill="url(#extBody)" stroke="#FFD5A6" stroke-opacity="0.28" stroke-width="4"/>
  <rect x="115" y="66" width="30" height="18" rx="8" fill="#EAF4FF" fill-opacity="0.18"/>
  <path d="M145 66C145 50.536 157.536 38 173 38H183" stroke="#46D7FF" stroke-width="8" stroke-linecap="round"/>
  <path d="M183 38L208 54" stroke="#46D7FF" stroke-width="8" stroke-linecap="round"/>
  <rect x="88" y="92" width="14" height="30" rx="7" fill="#0F151C" stroke="#46D7FF" stroke-opacity="0.5" stroke-width="4"/>
  <path d="M113 108H149" stroke="#EAF4FF" stroke-width="7" stroke-linecap="round" opacity="0.55"/>
  <path d="M113 127H149" stroke="#EAF4FF" stroke-width="7" stroke-linecap="round" opacity="0.55"/>
  <path d="M113 146H149" stroke="#EAF4FF" stroke-width="7" stroke-linecap="round" opacity="0.55"/>
  <path d="M117 194C120.427 204.412 130.304 212 142 212C156.36 212 168 200.36 168 186" stroke="#46D7FF" stroke-width="6" stroke-linecap="round" opacity="0.6">
    <animate attributeName="opacity" values="0.3;0.8;0.3" dur="2.6s" repeatCount="indefinite"/>
  </path>
</svg>
